<mxfile host="app.diagrams.net" modified="2023-11-29T21:13:17.944Z" agent="Mozilla/5.0 (Windows NT 10.0; Win64; x64) AppleWebKit/537.36 (KHTML, like Gecko) Chrome/119.0.0.0 Safari/537.36 Edg/119.0.0.0" etag="vf_Q87BQlv7fmNTEzsPz" version="22.1.4" type="device">
  <diagram name="PÃ¡gina-1" id="m-Ln0tRN5WxjfX_Kr41t">
    <mxGraphModel dx="1046" dy="1782" grid="1" gridSize="10" guides="1" tooltips="1" connect="1" arrows="1" fold="1" page="1" pageScale="1" pageWidth="827" pageHeight="1169" math="0" shadow="0">
      <root>
        <mxCell id="0" />
        <mxCell id="1" parent="0" />
        <mxCell id="ffhu-G3uPTraWFk-8T8m-1" value="" style="rounded=0;whiteSpace=wrap;html=1;fillColor=#f8cecc;strokeColor=#b85450;" parent="1" vertex="1">
          <mxGeometry x="240" y="190" width="370" height="180" as="geometry" />
        </mxCell>
        <mxCell id="ffhu-G3uPTraWFk-8T8m-2" value="Account" style="rounded=0;whiteSpace=wrap;html=1;" parent="1" vertex="1">
          <mxGeometry x="460" y="255" width="110" height="50" as="geometry" />
        </mxCell>
        <mxCell id="ffhu-G3uPTraWFk-8T8m-5" style="edgeStyle=orthogonalEdgeStyle;rounded=0;orthogonalLoop=1;jettySize=auto;html=1;entryX=0;entryY=0.5;entryDx=0;entryDy=0;" parent="1" source="ffhu-G3uPTraWFk-8T8m-3" target="ffhu-G3uPTraWFk-8T8m-2" edge="1">
          <mxGeometry relative="1" as="geometry" />
        </mxCell>
        <mxCell id="ffhu-G3uPTraWFk-8T8m-3" value="Authentication" style="rounded=1;whiteSpace=wrap;html=1;dashed=1;" parent="1" vertex="1">
          <mxGeometry x="270" y="255" width="120" height="50" as="geometry" />
        </mxCell>
        <mxCell id="ffhu-G3uPTraWFk-8T8m-6" value="" style="rounded=0;whiteSpace=wrap;html=1;fillColor=#ffe6cc;strokeColor=#d79b00;" parent="1" vertex="1">
          <mxGeometry x="240" y="-70" width="370" height="180" as="geometry" />
        </mxCell>
        <mxCell id="ffhu-G3uPTraWFk-8T8m-12" style="edgeStyle=orthogonalEdgeStyle;rounded=0;orthogonalLoop=1;jettySize=auto;html=1;exitX=0.25;exitY=1;exitDx=0;exitDy=0;" parent="1" source="ffhu-G3uPTraWFk-8T8m-9" target="ffhu-G3uPTraWFk-8T8m-3" edge="1">
          <mxGeometry relative="1" as="geometry" />
        </mxCell>
        <mxCell id="ffhu-G3uPTraWFk-8T8m-13" style="edgeStyle=orthogonalEdgeStyle;rounded=0;orthogonalLoop=1;jettySize=auto;html=1;exitX=0.75;exitY=1;exitDx=0;exitDy=0;" parent="1" source="ffhu-G3uPTraWFk-8T8m-9" target="ffhu-G3uPTraWFk-8T8m-2" edge="1">
          <mxGeometry relative="1" as="geometry" />
        </mxCell>
        <mxCell id="naj7oIM4HX3QOAGwrgyO-4" style="edgeStyle=orthogonalEdgeStyle;rounded=0;orthogonalLoop=1;jettySize=auto;html=1;entryX=0.5;entryY=1;entryDx=0;entryDy=0;" edge="1" parent="1" source="ffhu-G3uPTraWFk-8T8m-9" target="naj7oIM4HX3QOAGwrgyO-3">
          <mxGeometry relative="1" as="geometry" />
        </mxCell>
        <mxCell id="ffhu-G3uPTraWFk-8T8m-9" value="RemoteAuthentication" style="rounded=1;whiteSpace=wrap;html=1;" parent="1" vertex="1">
          <mxGeometry x="352.5" y="40" width="145" height="50" as="geometry" />
        </mxCell>
        <mxCell id="ffhu-G3uPTraWFk-8T8m-10" value="Domain" style="text;html=1;align=center;verticalAlign=middle;resizable=0;points=[];autosize=1;strokeColor=none;fillColor=none;" parent="1" vertex="1">
          <mxGeometry x="550" y="160" width="60" height="30" as="geometry" />
        </mxCell>
        <mxCell id="ffhu-G3uPTraWFk-8T8m-11" value="Data" style="text;html=1;align=center;verticalAlign=middle;resizable=0;points=[];autosize=1;strokeColor=none;fillColor=none;" parent="1" vertex="1">
          <mxGeometry x="555" y="-100" width="50" height="30" as="geometry" />
        </mxCell>
        <mxCell id="naj7oIM4HX3QOAGwrgyO-3" value="HttpClient" style="rounded=1;whiteSpace=wrap;html=1;dashed=1;" vertex="1" parent="1">
          <mxGeometry x="365" y="-43" width="120" height="50" as="geometry" />
        </mxCell>
      </root>
    </mxGraphModel>
  </diagram>
</mxfile>
